<svg width="83" height="16" viewBox="0 0 83 16" fill="none" xmlns="http://www.w3.org/2000/svg">
<g clip-path="url(#clip0_19_33)">
<g style="mix-blend-mode:hard-light" filter="url(#filter0_f_19_33)">
<ellipse cx="18.7622" cy="8.00001" rx="21.7334" ry="9.24" fill="#01FF85" fill-opacity="0.1"/>
</g>
<g style="mix-blend-mode:hard-light" filter="url(#filter1_f_19_33)">
<path d="M5.46833 3.66605V7.05405H12.8925V10.42H5.46833V15.7H0.711121V0.300049H13.9016V3.66605H5.46833ZM16.1264 0.300049H20.8836V15.7H16.1264V0.300049ZM40.2697 0.300049V15.7H36.3534L28.9293 7.49405V15.7H24.2682V0.300049H28.1844L35.6086 8.50605V0.300049H40.2697Z" fill="#01FF85" fill-opacity="0.1"/>
<path d="M5.46833 3.31652H5.1188V3.66605V7.05405V7.40358H5.46833H12.5429V10.0705H5.46833H5.1188V10.42V15.3505H1.06065V0.649575H13.552V3.31652H5.46833ZM35.9581 8.50605V0.649575H39.9202V15.3505H36.5085L29.1885 7.25955L28.5797 6.58673V7.49405V15.3505H24.6177V0.649575H28.0293L35.3494 8.74054L35.9581 9.41337V8.50605ZM16.4759 0.649575H20.5341V15.3505H16.4759V0.649575Z" stroke="#00A8A8" stroke-width="0.699052"/>
</g>
<g style="mix-blend-mode:hard-light" filter="url(#filter2_f_19_33)">
<path d="M5.46833 3.66605V7.05405H12.8925V10.42H5.46833V15.7H0.711121V0.300049H13.9016V3.66605H5.46833ZM16.1264 0.300049H20.8836V15.7H16.1264V0.300049ZM40.2697 0.300049V15.7H36.3534L28.9293 7.49405V15.7H24.2682V0.300049H28.1844L35.6086 8.50605V0.300049H40.2697Z" fill="#01FF85" fill-opacity="0.1"/>
<path d="M5.46833 3.20898H5.01126V3.66605V7.05405V7.51112H5.46833H12.4354V9.96298H5.46833H5.01126V10.42V15.243H1.16819V0.757121H13.4445V3.20898H5.46833ZM36.0657 8.50605V0.757121H39.8126V15.243H36.5562L29.2682 7.1874L28.4722 6.30755V7.49405V15.243H24.7252V0.757121H27.9816L35.2696 8.8127L36.0657 9.69254V8.50605ZM16.5835 0.757121H20.4265V15.243H16.5835V0.757121Z" stroke="#00A8A8" stroke-width="0.914145"/>
</g>
<g style="mix-blend-mode:hard-light" filter="url(#filter3_ddi_19_33)">
<path d="M5.46833 3.66605V7.05405H12.8925V10.42H5.46833V15.7H0.711121V0.300049H13.9016V3.66605H5.46833ZM16.1264 0.300049H20.8836V15.7H16.1264V0.300049ZM40.2697 0.300049V15.7H36.3534L28.9293 7.49405V15.7H24.2682V0.300049H28.1844L35.6086 8.50605V0.300049H40.2697Z" fill="#01FF85" fill-opacity="0.1"/>
<path d="M5.46833 3.31652H5.1188V3.66605V7.05405V7.40358H5.46833H12.5429V10.0705H5.46833H5.1188V10.42V15.3505H1.06065V0.649575H13.552V3.31652H5.46833ZM35.9581 8.50605V0.649575H39.9202V15.3505H36.5085L29.1885 7.25955L28.5797 6.58673V7.49405V15.3505H24.6177V0.649575H28.0293L35.3494 8.74054L35.9581 9.41337V8.50605ZM16.4759 0.649575H20.5341V15.3505H16.4759V0.649575Z" stroke="#33E9C6" stroke-opacity="0.2" stroke-width="0.699052"/>
</g>
<g filter="url(#filter4_f_19_33)">
<path d="M5.46833 3.66605V7.05405H12.8925V10.42H5.46833V15.7H0.711121V0.300049H13.9016V3.66605H5.46833ZM16.1264 0.300049H20.8836V15.7H16.1264V0.300049ZM40.2697 0.300049V15.7H36.3534L28.9293 7.49405V15.7H24.2682V0.300049H28.1844L35.6086 8.50605V0.300049H40.2697Z" fill="#01FF85" fill-opacity="0.1"/>
<path d="M5.46833 3.45096H5.25324V3.66605V7.05405V7.26914H5.46833H12.6774V10.205H5.46833H5.25324V10.42V15.485H0.926214V0.515142H13.6865V3.45096H5.46833ZM35.8237 8.50605V0.515142H40.0546V15.485H36.4489L29.0888 7.34974L28.7142 6.9357V7.49405V15.485H24.4833V0.515142H28.089L35.4491 8.65035L35.8237 9.0644V8.50605ZM16.3415 0.515142H20.6685V15.485H16.3415V0.515142Z" stroke="#33E9E9" stroke-width="0.430186"/>
</g>
<g filter="url(#filter5_f_19_33)">
<path d="M5.46833 3.66605V7.05405H12.8925V10.42H5.46833V15.7H0.711121V0.300049H13.9016V3.66605H5.46833ZM16.1264 0.300049H20.8836V15.7H16.1264V0.300049ZM40.2697 0.300049V15.7H36.3534L28.9293 7.49405V15.7H24.2682V0.300049H28.1844L35.6086 8.50605V0.300049H40.2697Z" fill="#01FF85" fill-opacity="0.1"/>
<path d="M5.46833 3.5585H5.36078V3.66605V7.05405V7.1616H5.46833H12.7849V10.3125H5.46833H5.36078V10.42V15.5925H0.818667V0.407595H13.794V3.5585H5.46833ZM35.7161 8.50605V0.407595H40.1621V15.5925H36.4011L29.009 7.4219L28.8217 7.21487V7.49405V15.5925H24.3757V0.407595H28.1367L35.5288 8.5782L35.7161 8.78522V8.50605ZM16.234 0.407595H20.7761V15.5925H16.234V0.407595Z" stroke="white" stroke-width="0.215093"/>
</g>
<g style="mix-blend-mode:hard-light" filter="url(#filter6_f_19_33)">
<ellipse cx="57.0356" cy="8.00001" rx="21.1204" ry="9.24" fill="#6360FF" fill-opacity="0.1"/>
</g>
<g style="mix-blend-mode:hard-light" filter="url(#filter7_f_19_33)">
<path d="M43.528 0.300049H48.2852V15.7H43.528V0.300049ZM55.2496 3.75405H50.084V0.300049H65.1485V3.75405H60.0068V15.7H55.2496V3.75405ZM75.5318 10.178V15.7H70.7746V10.112L64.3595 0.300049H69.381L73.3694 6.41605L77.3578 0.300049H81.9708L75.5318 10.178Z" fill="#CBCAFF" fill-opacity="0.1"/>
<path d="M55.5922 3.75405V3.41144H55.2496H50.4266V0.642658H64.1742L64.8059 1.60882V3.41144H60.0068H59.6642V3.75405V15.3574H55.5922V3.75405ZM65.4911 1.4047V0.642658H69.1954L73.0824 6.6032L73.3694 7.04327L73.6564 6.6032L77.5434 0.642658H81.3385L75.2448 9.99096L75.1892 10.0762V10.178V15.3574H71.1172V10.112V10.01L71.0613 9.92457L65.4911 1.4047ZM43.8706 0.642658H47.9426V15.3574H43.8706V0.642658Z" stroke="#FCFCFF" stroke-width="0.685218"/>
</g>
<g style="mix-blend-mode:hard-light" filter="url(#filter8_f_19_33)">
<path d="M43.528 0.300049H48.2852V15.7H43.528V0.300049ZM55.2496 3.75405H50.084V0.300049H65.1485V3.75405H60.0068V15.7H55.2496V3.75405ZM75.5318 10.178V15.7H70.7746V10.112L64.3595 0.300049H69.381L73.3694 6.41605L77.3578 0.300049H81.9708L75.5318 10.178Z" fill="#CBCAFF" fill-opacity="0.1"/>
<path d="M55.6977 3.75405V3.30602H55.2496H50.532V0.748076H64.1172L64.7004 1.64022V3.30602H60.0068H59.5588V3.75405V15.252H55.6977V3.75405ZM65.5965 1.37329V0.748076H69.1383L72.9941 6.66078L73.3694 7.23626L73.7447 6.66078L77.6005 0.748076H81.144L75.1564 9.93339L75.0837 10.0449V10.178V15.252H71.2226V10.112V9.97859L71.1496 9.86688L65.5965 1.37329ZM43.976 0.748076H47.8371V15.252H43.976V0.748076Z" stroke="#FCFCFF" stroke-width="0.896054"/>
</g>
<g style="mix-blend-mode:hard-light" filter="url(#filter9_ddi_19_33)">
<path d="M43.528 0.300049H48.2852V15.7H43.528V0.300049ZM55.2496 3.75405H50.084V0.300049H65.1485V3.75405H60.0068V15.7H55.2496V3.75405ZM75.5318 10.178V15.7H70.7746V10.112L64.3595 0.300049H69.381L73.3694 6.41605L77.3578 0.300049H81.9708L75.5318 10.178Z" fill="#CBCAFF" fill-opacity="0.1"/>
<path d="M55.5922 3.75405V3.41144H55.2496H50.4266V0.642658H64.1742L64.8059 1.60882V3.41144H60.0068H59.6642V3.75405V15.3574H55.5922V3.75405ZM65.4911 1.4047V0.642658H69.1954L73.0824 6.6032L73.3694 7.04327L73.6564 6.6032L77.5434 0.642658H81.3385L75.2448 9.99096L75.1892 10.0762V10.178V15.3574H71.1172V10.112V10.01L71.0613 9.92457L65.4911 1.4047ZM43.8706 0.642658H47.9426V15.3574H43.8706V0.642658Z" stroke="#E3F7FF" stroke-opacity="0.2" stroke-width="0.685218"/>
</g>
<g filter="url(#filter10_f_19_33)">
<path d="M43.528 0.300049H48.2852V15.7H43.528V0.300049ZM55.2496 3.75405H50.084V0.300049H65.1485V3.75405H60.0068V15.7H55.2496V3.75405ZM75.5318 10.178V15.7H70.7746V10.112L64.3595 0.300049H69.381L73.3694 6.41605L77.3578 0.300049H81.9708L75.5318 10.178Z" fill="#CBCAFF" fill-opacity="0.1"/>
<path d="M55.4605 3.75405V3.54321H55.2496H50.2948V0.510885H64.2455L64.9376 1.56956V3.54321H60.0068H59.796V3.75405V15.4892H55.4605V3.75405ZM64.9376 0.798988L64.7493 0.510885H64.9376V0.798988ZM65.3593 1.44395V0.510885H69.2668L73.1928 6.53122L73.3694 6.80203L73.546 6.53122L77.472 0.510885H81.5817L75.3551 10.0629L75.3209 10.1154V10.178V15.4892H70.9854V10.112V10.0492L70.951 9.99667L65.3593 1.44395ZM43.7388 0.510885H48.0743V15.4892H43.7388V0.510885Z" stroke="#A6D2E6" stroke-width="0.421672"/>
</g>
<g filter="url(#filter11_f_19_33)">
<path d="M43.528 0.300049H48.2852V15.7H43.528V0.300049ZM55.2496 3.75405H50.084V0.300049H65.1485V3.75405H60.0068V15.7H55.2496V3.75405ZM75.5318 10.178V15.7H70.7746V10.112L64.3595 0.300049H69.381L73.3694 6.41605L77.3578 0.300049H81.9708L75.5318 10.178Z" fill="#CBCAFF" fill-opacity="0.1"/>
<path d="M55.355 3.75405V3.64863H55.2496H50.1894V0.405467H64.3025L65.0431 1.53816V3.64863H60.0068H59.9014V3.75405V15.5946H55.355V3.75405ZM65.0431 1.15287L64.5544 0.405467H65.0431V1.15287ZM65.2539 1.47535V0.405467H69.3239L73.2811 6.47363L73.3694 6.60904L73.4577 6.47363L77.4149 0.405467H81.7763L75.4435 10.1205L75.4264 10.1467V10.178V15.5946H70.88V10.112V10.0806L70.8628 10.0544L65.2539 1.47535ZM43.6334 0.405467H48.1797V15.5946H43.6334V0.405467Z" stroke="white" stroke-width="0.210836"/>
</g>
<path d="M5.34693 3.9661V7.3541H12.7711V10.7201H5.34693V16.0001H0.589722V0.600098H13.7802V3.9661H5.34693ZM16.005 0.600098H20.7622V16.0001H16.005V0.600098ZM40.1483 0.600098V16.0001H36.232L28.8079 7.7941V16.0001H24.1468V0.600098H28.063L35.4872 8.8061V0.600098H40.1483Z" fill="#01FF85"/>
<path d="M43.9644 0.600098H48.7216V16.0001H43.9644V0.600098ZM55.6861 4.0541H50.5204V0.600098H65.5849V4.0541H60.4433V16.0001H55.6861V4.0541ZM75.9682 10.4781V16.0001H71.211V10.4121L64.796 0.600098H69.8175L73.8059 6.7161L77.7942 0.600098H82.4073L75.9682 10.4781Z" fill="#ECEBFF"/>
</g>
<defs>
<filter id="filter0_f_19_33" x="-6.19752" y="-4.46638" width="49.9195" height="24.9328" filterUnits="userSpaceOnUse" color-interpolation-filters="sRGB">
<feFlood flood-opacity="0" result="BackgroundImageFix"/>
<feBlend mode="normal" in="SourceGraphic" in2="BackgroundImageFix" result="shape"/>
<feGaussianBlur stdDeviation="1.6132" result="effect1_foregroundBlur_19_33"/>
</filter>
<filter id="filter1_f_19_33" x="-2.51527" y="-2.92634" width="46.0113" height="21.8527" filterUnits="userSpaceOnUse" color-interpolation-filters="sRGB">
<feFlood flood-opacity="0" result="BackgroundImageFix"/>
<feBlend mode="normal" in="SourceGraphic" in2="BackgroundImageFix" result="shape"/>
<feGaussianBlur stdDeviation="1.6132" result="effect1_foregroundBlur_19_33"/>
</filter>
<filter id="filter2_f_19_33" x="-0.364344" y="-0.775416" width="41.7095" height="17.5508" filterUnits="userSpaceOnUse" color-interpolation-filters="sRGB">
<feFlood flood-opacity="0" result="BackgroundImageFix"/>
<feBlend mode="normal" in="SourceGraphic" in2="BackgroundImageFix" result="shape"/>
<feGaussianBlur stdDeviation="0.537732" result="effect1_foregroundBlur_19_33"/>
</filter>
<filter id="filter3_ddi_19_33" x="-0.686983" y="-0.0225906" width="42.3547" height="18.1961" filterUnits="userSpaceOnUse" color-interpolation-filters="sRGB">
<feFlood flood-opacity="0" result="BackgroundImageFix"/>
<feColorMatrix in="SourceAlpha" type="matrix" values="0 0 0 0 0 0 0 0 0 0 0 0 0 0 0 0 0 0 127 0" result="hardAlpha"/>
<feOffset dy="0.699052"/>
<feGaussianBlur stdDeviation="0.268866"/>
<feColorMatrix type="matrix" values="0 0 0 0 0 0 0 0 0 0.3 0 0 0 0 0.275 0 0 0 0.7 0"/>
<feBlend mode="multiply" in2="BackgroundImageFix" result="effect1_dropShadow_19_33"/>
<feColorMatrix in="SourceAlpha" type="matrix" values="0 0 0 0 0 0 0 0 0 0 0 0 0 0 0 0 0 0 127 0" result="hardAlpha"/>
<feOffset dy="1.07546"/>
<feGaussianBlur stdDeviation="0.699052"/>
<feColorMatrix type="matrix" values="0 0 0 0 0 0 0 0 0 0.6 0 0 0 0 0.6 0 0 0 1 0"/>
<feBlend mode="color-dodge" in2="effect1_dropShadow_19_33" result="effect2_dropShadow_19_33"/>
<feBlend mode="normal" in="SourceGraphic" in2="effect2_dropShadow_19_33" result="shape"/>
<feColorMatrix in="SourceAlpha" type="matrix" values="0 0 0 0 0 0 0 0 0 0 0 0 0 0 0 0 0 0 127 0" result="hardAlpha"/>
<feOffset dx="-0.0699052" dy="0.13981"/>
<feGaussianBlur stdDeviation="0.0349526"/>
<feComposite in2="hardAlpha" operator="arithmetic" k2="-1" k3="1"/>
<feColorMatrix type="matrix" values="0 0 0 0 1 0 0 0 0 1 0 0 0 0 1 0 0 0 0.5 0"/>
<feBlend mode="normal" in2="shape" result="effect3_innerShadow_19_33"/>
</filter>
<filter id="filter4_f_19_33" x="0.603574" y="0.192502" width="39.7736" height="15.615" filterUnits="userSpaceOnUse" color-interpolation-filters="sRGB">
<feFlood flood-opacity="0" result="BackgroundImageFix"/>
<feBlend mode="normal" in="SourceGraphic" in2="BackgroundImageFix" result="shape"/>
<feGaussianBlur stdDeviation="0.0537732" result="effect1_foregroundBlur_19_33"/>
</filter>
<filter id="filter5_f_19_33" x="0.639423" y="0.228351" width="39.7019" height="15.5433" filterUnits="userSpaceOnUse" color-interpolation-filters="sRGB">
<feFlood flood-opacity="0" result="BackgroundImageFix"/>
<feBlend mode="normal" in="SourceGraphic" in2="BackgroundImageFix" result="shape"/>
<feGaussianBlur stdDeviation="0.0358488" result="effect1_foregroundBlur_19_33"/>
</filter>
<filter id="filter6_f_19_33" x="32.7526" y="-4.40253" width="48.5659" height="24.8051" filterUnits="userSpaceOnUse" color-interpolation-filters="sRGB">
<feFlood flood-opacity="0" result="BackgroundImageFix"/>
<feBlend mode="normal" in="SourceGraphic" in2="BackgroundImageFix" result="shape"/>
<feGaussianBlur stdDeviation="1.58127" result="effect1_foregroundBlur_19_33"/>
</filter>
<filter id="filter7_f_19_33" x="40.3654" y="-2.86249" width="44.768" height="21.725" filterUnits="userSpaceOnUse" color-interpolation-filters="sRGB">
<feFlood flood-opacity="0" result="BackgroundImageFix"/>
<feBlend mode="normal" in="SourceGraphic" in2="BackgroundImageFix" result="shape"/>
<feGaussianBlur stdDeviation="1.58127" result="effect1_foregroundBlur_19_33"/>
</filter>
<filter id="filter8_f_19_33" x="42.4738" y="-0.754132" width="40.5512" height="17.5083" filterUnits="userSpaceOnUse" color-interpolation-filters="sRGB">
<feFlood flood-opacity="0" result="BackgroundImageFix"/>
<feBlend mode="normal" in="SourceGraphic" in2="BackgroundImageFix" result="shape"/>
<feGaussianBlur stdDeviation="0.527091" result="effect1_foregroundBlur_19_33"/>
</filter>
<filter id="filter9_ddi_19_33" x="42.1575" y="-0.0162055" width="41.1837" height="18.1408" filterUnits="userSpaceOnUse" color-interpolation-filters="sRGB">
<feFlood flood-opacity="0" result="BackgroundImageFix"/>
<feColorMatrix in="SourceAlpha" type="matrix" values="0 0 0 0 0 0 0 0 0 0 0 0 0 0 0 0 0 0 127 0" result="hardAlpha"/>
<feOffset dy="0.685218"/>
<feGaussianBlur stdDeviation="0.263545"/>
<feColorMatrix type="matrix" values="0 0 0 0 0 0 0 0 0 0.051 0 0 0 0 0.082 0 0 0 0.7 0"/>
<feBlend mode="multiply" in2="BackgroundImageFix" result="effect1_dropShadow_19_33"/>
<feColorMatrix in="SourceAlpha" type="matrix" values="0 0 0 0 0 0 0 0 0 0 0 0 0 0 0 0 0 0 127 0" result="hardAlpha"/>
<feOffset dy="1.05418"/>
<feGaussianBlur stdDeviation="0.685218"/>
<feColorMatrix type="matrix" values="0 0 0 0 0 0 0 0 0 0.4 0 0 0 0 1 0 0 0 1 0"/>
<feBlend mode="color-dodge" in2="effect1_dropShadow_19_33" result="effect2_dropShadow_19_33"/>
<feBlend mode="normal" in="SourceGraphic" in2="effect2_dropShadow_19_33" result="shape"/>
<feColorMatrix in="SourceAlpha" type="matrix" values="0 0 0 0 0 0 0 0 0 0 0 0 0 0 0 0 0 0 127 0" result="hardAlpha"/>
<feOffset dx="-0.0685218" dy="0.137044"/>
<feGaussianBlur stdDeviation="0.0342609"/>
<feComposite in2="hardAlpha" operator="arithmetic" k2="-1" k3="1"/>
<feColorMatrix type="matrix" values="0 0 0 0 1 0 0 0 0 1 0 0 0 0 1 0 0 0 0.5 0"/>
<feBlend mode="normal" in2="shape" result="effect3_innerShadow_19_33"/>
</filter>
<filter id="filter10_f_19_33" x="43.4225" y="0.194631" width="38.6537" height="15.6107" filterUnits="userSpaceOnUse" color-interpolation-filters="sRGB">
<feFlood flood-opacity="0" result="BackgroundImageFix"/>
<feBlend mode="normal" in="SourceGraphic" in2="BackgroundImageFix" result="shape"/>
<feGaussianBlur stdDeviation="0.0527091" result="effect1_foregroundBlur_19_33"/>
</filter>
<filter id="filter11_f_19_33" x="43.4577" y="0.22977" width="38.5834" height="15.5405" filterUnits="userSpaceOnUse" color-interpolation-filters="sRGB">
<feFlood flood-opacity="0" result="BackgroundImageFix"/>
<feBlend mode="normal" in="SourceGraphic" in2="BackgroundImageFix" result="shape"/>
<feGaussianBlur stdDeviation="0.0351394" result="effect1_foregroundBlur_19_33"/>
</filter>
<clipPath id="clip0_19_33">
<rect width="83" height="16" fill="white"/>
</clipPath>
</defs>
</svg>
